<?xml version="1.0" encoding="UTF-8"?>
<!DOCTYPE svg PUBLIC "-//W3C//DTD SVG 1.1//EN" "http://www.w3.org/Graphics/SVG/1.1/DTD/svg11.dtd">
<svg xmlns="http://www.w3.org/2000/svg" version="1.1" width="256px" height="256px" style="shape-rendering:geometricPrecision; text-rendering:geometricPrecision; image-rendering:optimizeQuality; fill-rule:evenodd; clip-rule:evenodd" xmlns:xlink="http://www.w3.org/1999/xlink">
<g><path style="opacity:1" fill="#eca540" d="M 85.5,89.5 C 74.9388,108.665 73.1055,128.665 80,149.5C 82.4479,153.667 84.6146,158 86.5,162.5C 87.548,163.548 88.548,164.548 89.5,165.5C 90.3431,168.516 91.8431,171.183 94,173.5C 94.6708,174.252 95.5041,174.586 96.5,174.5C 96.8333,174.5 97.1667,174.5 97.5,174.5C 98.6138,175.885 99.6138,177.385 100.5,179C 105.558,181.529 110.558,184.029 115.5,186.5C 116.589,188.117 118.256,188.95 120.5,189C 130.758,191.15 140.924,190.984 151,188.5C 154.383,189.28 157.716,189.613 161,189.5C 164.815,188.051 168.648,186.551 172.5,185C 175.451,181.213 179.118,178.38 183.5,176.5C 184.154,174.885 184.654,173.218 185,171.5C 189.553,167.213 192.22,161.88 193,155.5C 193.946,145.251 193.446,135.084 191.5,125C 191.706,123.634 192.04,122.301 192.5,121C 190.992,117.829 189.659,114.662 188.5,111.5C 187.167,111.5 185.833,111.5 184.5,111.5C 184.5,110.5 184.5,109.5 184.5,108.5C 183.448,108.649 182.448,108.483 181.5,108C 178.312,105.646 175.645,102.812 173.5,99.5C 159.864,95.2549 146.364,95.5883 133,100.5C 131.97,100.836 131.47,101.503 131.5,102.5C 128.802,102.45 126.636,103.45 125,105.5C 124.667,104.833 124.333,104.167 124,103.5C 118.741,111.606 115.241,120.439 113.5,130C 114.447,135.13 116.447,139.797 119.5,144C 123.947,145.39 127.947,147.556 131.5,150.5C 137.618,150.201 143.285,148.534 148.5,145.5C 149.755,141.855 149.755,138.189 148.5,134.5C 150.711,127.27 155.044,125.436 161.5,129C 162.759,129.923 164.092,130.757 165.5,131.5C 168.105,139.332 167.605,146.999 164,154.5C 163.282,153.549 162.449,153.383 161.5,154C 159.07,156.305 158.07,159.138 158.5,162.5C 149.236,167.878 139.236,169.878 128.5,168.5C 128.5,167.5 128.5,166.5 128.5,165.5C 123.516,164.016 118.849,161.849 114.5,159C 103.919,147.592 99.0854,134.092 100,118.5C 102.261,111.001 104.761,103.668 107.5,96.5C 114.577,93.2826 121.577,89.7826 128.5,86C 132.977,81.9938 138.311,80.4938 144.5,81.5C 161.72,79.8534 176.887,84.52 190,95.5C 192.742,99.9737 195.742,104.307 199,108.5C 202.216,114.264 204.883,120.264 207,126.5C 209.004,139.754 210.171,153.087 210.5,166.5C 209.667,171.164 208,175.497 205.5,179.5C 195.494,193.183 182.494,203.016 166.5,209C 162.205,209.912 157.872,210.579 153.5,211C 108.498,211.511 63.4977,211.344 18.5,210.5C 21.3267,200.53 24.16,190.53 27,180.5C 35.2794,161.434 43.4461,142.268 51.5,123C 54.2949,106.283 59.9615,90.7825 68.5,76.5C 77.3702,68.973 85.7035,60.8064 93.5,52C 100.389,48.3885 107.389,45.0551 114.5,42C 119.069,41.7337 123.403,40.7337 127.5,39C 142.101,37.6964 156.434,38.6964 170.5,42C 177.708,45.5071 185.208,48.0071 193,49.5C 202.906,47.2932 211.073,42.1266 217.5,34C 225.794,32.4525 228.628,35.6192 226,43.5C 223.828,46.3483 221.162,48.6817 218,50.5C 217.805,52.2072 217.805,53.8739 218,55.5C 215,58.5 212,61.5 209,64.5C 208.439,63.9781 207.772,63.6448 207,63.5C 204.323,64.8506 201.657,66.1839 199,67.5C 181.931,57.7591 163.431,52.0924 143.5,50.5C 139.511,50.482 135.678,51.1487 132,52.5C 131.667,52.1667 131.333,51.8333 131,51.5C 126.374,54.7095 121.208,56.5428 115.5,57C 111.767,58.8531 108.1,60.8531 104.5,63C 102.845,64.4443 102.178,66.2776 102.5,68.5C 101.448,68.3505 100.448,68.5172 99.5,69C 98.5663,72.7579 95.8997,75.2579 91.5,76.5C 90.8849,79.4362 89.7183,82.1029 88,84.5C 86.9326,85.1905 85.7659,85.6905 84.5,86C 85.3366,87.0113 85.67,88.1779 85.5,89.5 Z M 79.5,187.5 C 69.008,188.659 58.3414,188.825 47.5,188C 52.3773,178.714 56.8773,169.214 61,159.5C 64.9595,168.751 69.9595,177.417 76,185.5C 76.8159,186.823 77.9826,187.489 79.5,187.5 Z"/></g>
<g><path style="opacity:1" fill="#ee9f34" d="M 217.5,38.5 C 222.065,38.7222 222.732,41.0555 219.5,45.5C 215.015,50.4852 210.349,55.3186 205.5,60C 203.152,61.8403 200.485,63.0069 197.5,63.5C 189.547,61.105 182.047,57.7717 175,53.5C 174.667,53.8333 174.333,54.1667 174,54.5C 169.688,52.3623 165.188,50.6956 160.5,49.5C 121.267,44.701 92.7675,60.3677 75,96.5C 67.0151,119.457 68.3484,141.79 79,163.5C 95.7852,188.617 118.785,198.95 148,194.5C 169.333,192.53 185,182.197 195,163.5C 201.807,142.645 198.974,123.312 186.5,105.5C 182.726,103.229 179.393,100.396 176.5,97C 157.818,88.1328 139.818,89.6328 122.5,101.5C 109.548,113.251 107.048,126.917 115,142.5C 124.087,154.583 135.087,156.916 148,149.5C 150.991,145.03 153.158,140.53 154.5,136C 156.911,134.411 159.078,134.911 161,137.5C 161.968,148.063 157.802,155.896 148.5,161C 131.664,166.213 118.497,160.713 109,144.5C 101.321,126.573 103.488,110.406 115.5,96C 124.315,88.7279 134.481,85.2279 146,85.5C 181.322,86.1477 201.822,103.981 207.5,139C 208.493,163.347 198.826,182.347 178.5,196C 171.765,199.946 164.598,202.779 157,204.5C 156.667,204.167 156.333,203.833 156,203.5C 149,204.167 142,204.833 135,205.5C 120.013,204.235 105.013,204.235 90,205.5C 72.5737,204.674 55.0737,204.174 37.5,204C 32.5854,203.253 29.9187,200.419 29.5,195.5C 38.0351,173.064 46.8684,150.73 56,128.5C 60.034,110.778 66.7007,93.7777 76,77.5C 95.0605,49.6316 121.394,38.2983 155,43.5C 167.132,46.2258 179.132,48.8925 191,51.5C 196.128,51.5688 200.961,50.4021 205.5,48C 209.687,44.9695 213.687,41.8028 217.5,38.5 Z M 79.5,187.5 C 77.9826,187.489 76.8159,186.823 76,185.5C 69.9595,177.417 64.9595,168.751 61,159.5C 56.8773,169.214 52.3773,178.714 47.5,188C 58.3414,188.825 69.008,188.659 79.5,187.5 Z"/></g>
<g><path style="opacity:1" fill="#e2a549" d="M 85.5,89.5 C 85.67,88.1779 85.3366,87.0113 84.5,86C 85.7659,85.6905 86.9326,85.1905 88,84.5C 89.7183,82.1029 90.8849,79.4362 91.5,76.5C 95.8997,75.2579 98.5663,72.7579 99.5,69C 100.448,68.5172 101.448,68.3505 102.5,68.5C 102.178,66.2776 102.845,64.4443 104.5,63C 108.1,60.8531 111.767,58.8531 115.5,57C 121.208,56.5428 126.374,54.7095 131,51.5C 131.333,51.8333 131.667,52.1667 132,52.5C 135.678,51.1487 139.511,50.482 143.5,50.5C 163.431,52.0924 181.931,57.7591 199,67.5C 201.657,66.1839 204.323,64.8506 207,63.5C 207.772,63.6448 208.439,63.9781 209,64.5C 212,61.5 215,58.5 218,55.5C 217.805,53.8739 217.805,52.2072 218,50.5C 221.162,48.6817 223.828,46.3483 226,43.5C 228.628,35.6192 225.794,32.4525 217.5,34C 211.073,42.1266 202.906,47.2932 193,49.5C 185.208,48.0071 177.708,45.5071 170.5,42C 156.434,38.6964 142.101,37.6964 127.5,39C 123.403,40.7337 119.069,41.7337 114.5,42C 107.389,45.0551 100.389,48.3885 93.5,52C 85.7035,60.8064 77.3702,68.973 68.5,76.5C 86.9173,46.2896 113.917,32.4563 149.5,35C 165.664,36.3729 180.997,40.5396 195.5,47.5C 203.315,40.8522 210.982,34.0188 218.5,27C 227.038,24.0159 232.704,26.8492 235.5,35.5C 234.763,38.3556 233.596,41.0223 232,43.5C 221.653,54.0143 211.153,64.3476 200.5,74.5C 179.904,60.8504 157.238,54.6837 132.5,56C 127.229,57.6549 121.895,59.3216 116.5,61C 103.742,67.9272 93.4086,77.4272 85.5,89.5 Z"/></g>
<g><path style="opacity:0.898" fill="#caa060" d="M 156.5,78.5 C 143.496,78.5987 130.83,80.932 118.5,85.5C 118.577,84.2502 119.244,83.4169 120.5,83C 131.52,78.9281 142.854,76.9281 154.5,77C 155.416,77.2784 156.082,77.7784 156.5,78.5 Z"/></g>
<g><path style="opacity:1" fill="#e9a94a" d="M 156.5,78.5 C 177.896,79.6074 194.062,89.2741 205,107.5C 214.55,125.904 216.884,145.238 212,165.5C 211.617,166.056 211.117,166.389 210.5,166.5C 210.171,153.087 209.004,139.754 207,126.5C 204.883,120.264 202.216,114.264 199,108.5C 195.742,104.307 192.742,99.9737 190,95.5C 176.887,84.52 161.72,79.8534 144.5,81.5C 138.311,80.4938 132.977,81.9938 128.5,86C 121.577,89.7826 114.577,93.2826 107.5,96.5C 104.761,103.668 102.261,111.001 100,118.5C 99.0854,134.092 103.919,147.592 114.5,159C 118.849,161.849 123.516,164.016 128.5,165.5C 128.5,166.5 128.5,167.5 128.5,168.5C 139.236,169.878 149.236,167.878 158.5,162.5C 157.781,164.888 156.115,166.388 153.5,167C 140.586,173.686 128.253,172.852 116.5,164.5C 114.905,161.069 112.405,158.402 109,156.5C 106.916,152.664 104.583,148.997 102,145.5C 100.592,141.943 99.5921,138.276 99,134.5C 98.5003,126.507 98.3336,118.507 98.5,110.5C 100.89,102.174 105.223,95.0069 111.5,89C 113.577,87.295 115.91,86.1283 118.5,85.5C 130.83,80.932 143.496,78.5987 156.5,78.5 Z"/></g>
<g><path style="opacity:0.075" fill="#81bcd7" d="M 157.5,122.5 C 155.167,122.5 152.833,122.5 150.5,122.5C 150.082,121.778 149.416,121.278 148.5,121C 151.68,120.863 154.68,121.363 157.5,122.5 Z"/></g>
<g><path style="opacity:0.751" fill="#cc9d5c" d="M 98.5,110.5 C 98.3336,118.507 98.5003,126.507 99,134.5C 99.5921,138.276 100.592,141.943 102,145.5C 104.583,148.997 106.916,152.664 109,156.5C 112.405,158.402 114.905,161.069 116.5,164.5C 100.568,152.577 94.0678,136.577 97,116.5C 97.1909,114.292 97.6909,112.292 98.5,110.5 Z"/></g>
<g><path style="opacity:0.973" fill="#e0a64d" d="M 131.5,102.5 C 116.219,112.952 113.386,126.285 123,142.5C 130.197,149.205 138.031,150.039 146.5,145C 147.602,142.599 147.769,140.099 147,137.5C 145.382,134.709 144.215,131.709 143.5,128.5C 144.844,125.33 147.178,123.33 150.5,122.5C 152.833,122.5 155.167,122.5 157.5,122.5C 162.996,123.823 166.829,127.156 169,132.5C 169.87,138.917 169.536,145.251 168,151.5C 166.234,153.596 164.901,155.929 164,158.5C 162.226,159.965 160.392,161.298 158.5,162.5C 158.07,159.138 159.07,156.305 161.5,154C 162.449,153.383 163.282,153.549 164,154.5C 167.605,146.999 168.105,139.332 165.5,131.5C 164.092,130.757 162.759,129.923 161.5,129C 155.044,125.436 150.711,127.27 148.5,134.5C 149.755,138.189 149.755,141.855 148.5,145.5C 143.285,148.534 137.618,150.201 131.5,150.5C 127.947,147.556 123.947,145.39 119.5,144C 116.447,139.797 114.447,135.13 113.5,130C 115.241,120.439 118.741,111.606 124,103.5C 124.333,104.167 124.667,104.833 125,105.5C 126.636,103.45 128.802,102.45 131.5,102.5 Z"/></g>
<g><path style="opacity:0.999" fill="#df9d3e" d="M 79.5,187.5 C 80.5,187.5 81.5,187.5 82.5,187.5C 82.5,188.5 82.5,189.5 82.5,190.5C 70.1487,190.832 57.8153,190.499 45.5,189.5C 45.8805,184.667 46.0471,180 46,175.5C 47.3267,172.869 48.6601,170.202 50,167.5C 53.8215,163.7 57.6548,160.033 61.5,156.5C 67.494,161.331 72.6606,166.998 77,173.5C 78.3731,178.072 79.2065,182.739 79.5,187.5 Z M 79.5,187.5 C 77.9826,187.489 76.8159,186.823 76,185.5C 69.9595,177.417 64.9595,168.751 61,159.5C 56.8773,169.214 52.3773,178.714 47.5,188C 58.3414,188.825 69.008,188.659 79.5,187.5 Z"/></g>
<g><path style="opacity:0.131" fill="#7b6e51" d="M 97.5,174.5 C 97.1667,173.167 96.8333,173.167 96.5,174.5C 95.5041,174.586 94.6708,174.252 94,173.5C 91.8431,171.183 90.3431,168.516 89.5,165.5C 90.1894,164.226 91.0228,164.226 92,165.5C 93.6255,168.128 95.6255,170.461 98,172.5C 98.6917,173.437 98.525,174.103 97.5,174.5 Z"/></g>
<g><path style="opacity:1" fill="#dfa34a" d="M 115.5,186.5 C 134.498,190.478 152.831,188.644 170.5,181C 181.419,175.751 188.253,167.251 191,155.5C 193.69,139.768 191.023,125.102 183,111.5C 174.584,102.908 164.251,98.5745 152,98.5C 145.024,99.1034 138.19,100.437 131.5,102.5C 131.47,101.503 131.97,100.836 133,100.5C 146.364,95.5883 159.864,95.2549 173.5,99.5C 175.645,102.812 178.312,105.646 181.5,108C 182.448,108.483 183.448,108.649 184.5,108.5C 184.5,109.5 184.5,110.5 184.5,111.5C 185.833,111.5 187.167,111.5 188.5,111.5C 189.659,114.662 190.992,117.829 192.5,121C 192.04,122.301 191.706,123.634 191.5,125C 193.446,135.084 193.946,145.251 193,155.5C 192.22,161.88 189.553,167.213 185,171.5C 184.654,173.218 184.154,174.885 183.5,176.5C 179.118,178.38 175.451,181.213 172.5,185C 168.648,186.551 164.815,188.051 161,189.5C 157.716,189.613 154.383,189.28 151,188.5C 140.924,190.984 130.758,191.15 120.5,189C 118.256,188.95 116.589,188.117 115.5,186.5 Z"/></g>
</svg>
